<?xml version="1.0" encoding="UTF-8"?>
<svg width="266px" height="46px" viewBox="0 0 266 46" version="1.1" xmlns="http://www.w3.org/2000/svg" xmlns:xlink="http://www.w3.org/1999/xlink">
    <!-- Generator: Sketch 63.1 (92452) - https://sketch.com -->
    <title>Group</title>
    <desc>Created with Sketch.</desc>
    <g id="Page-1" stroke="none" stroke-width="1" fill="none" fill-rule="evenodd">
        <g id="Group" transform="translate(0.820300, 0.859620)" fill="#000000" fill-rule="nonzero">
            <path d="M1.42108547e-14,13.99288 L11.3636,43.95988 L16.5517,43.95988 L28.2857,13.99288 L22.6037,13.99288 L16.7987,30.83378 C15.8107,33.55808 14.9457,36.03468 14.2667,38.51128 L14.081,38.51128 C13.4634,36.03468 12.6605,33.55808 11.6724,30.83378 L5.8053,13.99288 L1.42108547e-14,13.99288 Z" id="Path"></path>
            <path d="M38.8737,43.95988 L38.8737,13.99288 L33.4387,13.99288 L33.4387,43.95988 L38.8737,43.95988 Z M36.1567,2.16708 C34.1797,2.16708 32.7597,3.65298 32.7597,5.57238 C32.7597,7.42988 34.1187,8.91578 36.0327,8.91578 C38.1947,8.91578 39.5527,7.42988 39.4917,5.57238 C39.4917,3.65298 38.1947,2.16708 36.1567,2.16708 Z" id="Shape"></path>
            <path d="M69.4057,43.95988 C69.0347,41.91668 68.9117,39.37808 68.9117,36.77768 L68.9117,25.57098 C68.9117,19.56518 66.6887,13.31178 57.5477,13.31178 C53.7807,13.31178 50.1987,14.36438 47.7287,15.97418 L48.9637,19.56518 C51.0637,18.20308 53.9657,17.33628 56.7447,17.33628 C62.8597,17.33628 63.5387,21.79418 63.5387,24.27078 L63.5387,24.88998 C51.9897,24.82798 45.5667,28.79058 45.5667,36.03468 C45.5667,40.36878 48.6547,44.64088 54.7067,44.64088 C58.9687,44.64088 62.1797,42.53578 63.8477,40.18298 L64.0327,40.18298 L64.4647,43.95988 L69.4057,43.95988 Z M63.6617,33.86768 C63.6617,34.42488 63.5387,35.04408 63.3537,35.60128 C62.4887,38.13978 60.0187,40.61638 56.1277,40.61638 C53.3487,40.61638 51.0017,38.94468 51.0017,35.41558 C51.0017,29.59548 57.7337,28.54298 63.6617,28.66678 L63.6617,33.86768 Z" id="Shape"></path>
            <path d="M77.5837,43.95988 L85.1187,43.95988 L85.1187,28.23338 C86.1067,28.41908 87.4037,28.48098 88.8237,28.48098 C94.1967,28.48098 98.9527,27.05698 101.9787,24.02308 C104.3257,21.79418 105.5607,18.51268 105.5607,14.55008 C105.5607,10.64938 103.9547,7.36788 101.4847,5.32468 C98.8287,3.09578 94.7527,1.91938 89.1947,1.91938 C84.0687,1.91938 80.3017,2.29088 77.5837,2.78618 L77.5837,43.95988 Z M85.1187,8.11088 C85.9217,7.92518 87.4037,7.73938 89.5037,7.73938 C94.7527,7.73938 97.9647,10.21598 97.9647,14.85968 C97.9647,19.75098 94.5057,22.53718 88.8237,22.53718 C87.2797,22.53718 86.0447,22.47528 85.1187,22.22758 L85.1187,8.11088 Z" id="Shape"></path>
            <path d="M111.5917,43.95988 L119.2507,43.95988 L119.2507,25.94248 C119.2507,25.07568 119.3117,24.27078 119.5587,23.65168 C120.3617,21.36078 122.4617,19.37948 125.4257,19.37948 C129.6257,19.37948 131.2317,22.66098 131.2317,27.05698 L131.2317,43.95988 L138.8277,43.95988 L138.8277,26.19018 C138.8277,16.53138 133.4547,13.12608 128.3287,13.12608 C126.4147,13.12608 124.6237,13.62138 123.1407,14.48818 C121.5357,15.35498 120.2997,16.53138 119.3737,17.95548 L119.2507,17.95548 L119.2507,0 L111.5917,0 L111.5917,43.95988 Z" id="Path"></path>
            <path d="M160.5827,13.12608 C151.5047,13.12608 145.0197,19.19378 145.0197,29.10018 C145.0197,38.75898 151.5667,44.64088 160.0887,44.64088 C167.7467,44.64088 175.5287,39.68768 175.5287,28.60488 C175.5287,19.44138 169.5377,13.12608 160.5827,13.12608 Z M160.3977,18.69838 C165.5857,18.69838 167.6857,24.08508 167.6857,28.79058 C167.6857,34.85828 164.6597,39.13048 160.3357,39.13048 C155.7047,39.13048 152.8637,34.73448 152.8637,28.91448 C152.8637,23.89928 155.0247,18.69838 160.3977,18.69838 Z" id="Shape"></path>
            <path d="M183.0917,6.99638 L183.0917,13.80708 L178.7687,13.80708 L178.7687,19.50328 L183.0917,19.50328 L183.0917,33.68188 C183.0917,37.64448 183.8327,40.36878 185.4377,42.10238 C186.8587,43.65028 189.2057,44.57898 191.9847,44.57898 C194.3927,44.57898 196.3697,44.26938 197.4807,43.83598 L197.3577,38.01598 C196.6787,38.20168 195.6897,38.38748 194.3927,38.38748 C191.4907,38.38748 190.5027,36.46808 190.5027,32.81508 L190.5027,19.50328 L197.7277,19.50328 L197.7277,13.80708 L190.5027,13.80708 L190.5027,5.20088 L183.0917,6.99638 Z" id="Path"></path>
            <path d="M216.7327,13.12608 C207.6547,13.12608 201.1697,19.19378 201.1697,29.10018 C201.1697,38.75898 207.7157,44.64088 216.2387,44.64088 C223.8967,44.64088 231.6787,39.68768 231.6787,28.60488 C231.6787,19.44138 225.6877,13.12608 216.7327,13.12608 Z M216.5477,18.69838 C221.7357,18.69838 223.8347,24.08508 223.8347,28.79058 C223.8347,34.85828 220.8087,39.13048 216.4857,39.13048 C211.8537,39.13048 209.0127,34.73448 209.0127,28.91448 C209.0127,23.89928 211.1747,18.69838 216.5477,18.69838 Z" id="Shape"></path>
            <path d="M237.9437,43.95988 L245.6017,43.95988 L245.6017,26.25208 C245.6017,25.38528 245.6637,24.45658 245.9107,23.77548 C246.7137,21.48458 248.8137,19.31758 251.8397,19.31758 C255.9777,19.31758 257.5837,22.59908 257.5837,26.93318 L257.5837,43.95988 L265.1797,43.95988 L265.1797,26.06638 C265.1797,16.53138 259.7447,13.12608 254.4957,13.12608 C249.4927,13.12608 246.2197,15.97418 244.9227,18.32688 L244.7377,18.32688 L244.3667,13.80708 L237.6967,13.80708 C237.8827,16.40758 237.9437,19.31758 237.9437,22.78478 L237.9437,43.95988 Z" id="Path"></path>
        </g>
    </g>
</svg>